<mxfile host="app.diagrams.net" agent="Mozilla/5.0 (Windows NT 10.0; Win64; x64) AppleWebKit/537.36 (KHTML, like Gecko) Chrome/131.0.0.0 Safari/537.36 OPR/116.0.0.0 (Edition std-2)" version="26.0.16">
  <diagram name="Страница — 1" id="35O15w91c8FVeVX3MVgW">
    <mxGraphModel dx="1008" dy="545" grid="1" gridSize="10" guides="1" tooltips="1" connect="1" arrows="1" fold="1" page="1" pageScale="1" pageWidth="827" pageHeight="1169" math="0" shadow="0">
      <root>
        <mxCell id="0" />
        <mxCell id="1" parent="0" />
        <mxCell id="43qSj-kFOlz3XDHTkx2G-1" value="" style="rounded=0;whiteSpace=wrap;html=1;" parent="1" vertex="1">
          <mxGeometry x="90" y="70" width="670" height="310" as="geometry" />
        </mxCell>
        <mxCell id="43qSj-kFOlz3XDHTkx2G-2" value="" style="rounded=1;whiteSpace=wrap;html=1;" parent="1" vertex="1">
          <mxGeometry x="320" y="200" width="170" height="80" as="geometry" />
        </mxCell>
        <mxCell id="43qSj-kFOlz3XDHTkx2G-3" value="" style="endArrow=classic;html=1;rounded=0;" parent="1" edge="1">
          <mxGeometry width="50" height="50" relative="1" as="geometry">
            <mxPoint x="270" y="210" as="sourcePoint" />
            <mxPoint x="319" y="210" as="targetPoint" />
            <Array as="points">
              <mxPoint x="240" y="210" />
              <mxPoint x="269" y="210" />
            </Array>
          </mxGeometry>
        </mxCell>
        <mxCell id="43qSj-kFOlz3XDHTkx2G-5" value="" style="endArrow=classic;html=1;rounded=0;" parent="1" edge="1">
          <mxGeometry width="50" height="50" relative="1" as="geometry">
            <mxPoint x="320" y="240" as="sourcePoint" />
            <mxPoint x="319" y="240" as="targetPoint" />
            <Array as="points">
              <mxPoint x="240" y="240" />
            </Array>
          </mxGeometry>
        </mxCell>
        <mxCell id="43qSj-kFOlz3XDHTkx2G-6" value="" style="endArrow=classic;html=1;rounded=0;" parent="1" edge="1">
          <mxGeometry width="50" height="50" relative="1" as="geometry">
            <mxPoint x="319" y="270" as="sourcePoint" />
            <mxPoint x="319" y="270" as="targetPoint" />
            <Array as="points">
              <mxPoint x="240" y="270" />
            </Array>
          </mxGeometry>
        </mxCell>
        <mxCell id="43qSj-kFOlz3XDHTkx2G-10" value="" style="endArrow=classic;html=1;rounded=0;" parent="1" edge="1">
          <mxGeometry width="50" height="50" relative="1" as="geometry">
            <mxPoint x="490" y="239.73" as="sourcePoint" />
            <mxPoint x="572" y="239.73" as="targetPoint" />
          </mxGeometry>
        </mxCell>
        <mxCell id="43qSj-kFOlz3XDHTkx2G-13" value="Грузовик" style="text;html=1;align=center;verticalAlign=middle;whiteSpace=wrap;rounded=0;" parent="1" vertex="1">
          <mxGeometry x="375" y="225" width="60" height="30" as="geometry" />
        </mxCell>
        <mxCell id="43qSj-kFOlz3XDHTkx2G-14" value="&lt;font style=&quot;font-size: 10px;&quot;&gt;Груз&lt;/font&gt;" style="text;html=1;align=center;verticalAlign=middle;resizable=0;points=[];autosize=1;strokeColor=none;fillColor=none;" parent="1" vertex="1">
          <mxGeometry x="235" y="180" width="40" height="30" as="geometry" />
        </mxCell>
        <mxCell id="43qSj-kFOlz3XDHTkx2G-16" value="&lt;font size=&quot;1&quot;&gt;Топливо&lt;/font&gt;" style="text;html=1;align=center;verticalAlign=middle;resizable=0;points=[];autosize=1;strokeColor=none;fillColor=none;" parent="1" vertex="1">
          <mxGeometry x="220.25" y="210" width="60" height="30" as="geometry" />
        </mxCell>
        <mxCell id="43qSj-kFOlz3XDHTkx2G-17" value="&lt;font size=&quot;1&quot;&gt;Перемещение груза&lt;/font&gt;" style="text;html=1;align=center;verticalAlign=middle;resizable=0;points=[];autosize=1;strokeColor=none;fillColor=none;" parent="1" vertex="1">
          <mxGeometry x="490" y="210" width="120" height="30" as="geometry" />
        </mxCell>
        <mxCell id="43qSj-kFOlz3XDHTkx2G-18" value="&lt;span style=&quot;font-size: 10px;&quot;&gt;Электрическая энергия&lt;/span&gt;" style="text;html=1;align=center;verticalAlign=middle;resizable=0;points=[];autosize=1;strokeColor=none;fillColor=none;" parent="1" vertex="1">
          <mxGeometry x="180" y="240" width="130" height="30" as="geometry" />
        </mxCell>
        <mxCell id="43qSj-kFOlz3XDHTkx2G-20" value="Грузовик" style="rounded=0;whiteSpace=wrap;html=1;" parent="1" vertex="1">
          <mxGeometry x="330" y="555" width="120" height="60" as="geometry" />
        </mxCell>
        <mxCell id="43qSj-kFOlz3XDHTkx2G-21" value="&lt;span style=&quot;--tw-border-spacing-x: 0; --tw-border-spacing-y: 0; --tw-translate-x: 0; --tw-translate-y: 0; --tw-rotate: 0; --tw-skew-x: 0; --tw-skew-y: 0; --tw-scale-x: 1; --tw-scale-y: 1; --tw-pan-x: ; --tw-pan-y: ; --tw-pinch-zoom: ; --tw-scroll-snap-strictness: proximity; --tw-gradient-from-position: ; --tw-gradient-via-position: ; --tw-gradient-to-position: ; --tw-ordinal: ; --tw-slashed-zero: ; --tw-numeric-figure: ; --tw-numeric-spacing: ; --tw-numeric-fraction: ; --tw-ring-inset: ; --tw-ring-offset-width: 0px; --tw-ring-offset-color: #fff; --tw-ring-color: rgba(59,130,246,.5); --tw-ring-offset-shadow: 0 0 #0000; --tw-ring-shadow: 0 0 #0000; --tw-shadow: 0 0 #0000; --tw-shadow-colored: 0 0 #0000; --tw-blur: ; --tw-brightness: ; --tw-contrast: ; --tw-grayscale: ; --tw-hue-rotate: ; --tw-invert: ; --tw-saturate: ; --tw-sepia: ; --tw-drop-shadow: ; --tw-backdrop-blur: ; --tw-backdrop-brightness: ; --tw-backdrop-contrast: ; --tw-backdrop-grayscale: ; --tw-backdrop-hue-rotate: ; --tw-backdrop-invert: ; --tw-backdrop-opacity: ; --tw-backdrop-saturate: ; --tw-backdrop-sepia: ; --tw-contain-size: ; --tw-contain-layout: ; --tw-contain-paint: ; --tw-contain-style: ; box-sizing: border-box; border-width: 0px; border-style: solid; border-color: hsl(var(--border)); border-image: initial; color: var(--tw-prose-bold); font-family: __Inter_d65c78, __Inter_Fallback_d65c78, ui-sans-serif, system-ui, sans-serif, &amp;quot;Apple Color Emoji&amp;quot;, &amp;quot;Segoe UI Emoji&amp;quot;, &amp;quot;Segoe UI Symbol&amp;quot;, &amp;quot;Noto Color Emoji&amp;quot;; font-size: 16px; text-align: left; background-color: rgba(244, 244, 245, 0.5);&quot;&gt;Механическая подсистема&lt;/span&gt;" style="rounded=0;whiteSpace=wrap;html=1;" parent="1" vertex="1">
          <mxGeometry x="160" y="650" width="120" height="60" as="geometry" />
        </mxCell>
        <mxCell id="43qSj-kFOlz3XDHTkx2G-22" value="&lt;span style=&quot;--tw-border-spacing-x: 0; --tw-border-spacing-y: 0; --tw-translate-x: 0; --tw-translate-y: 0; --tw-rotate: 0; --tw-skew-x: 0; --tw-skew-y: 0; --tw-scale-x: 1; --tw-scale-y: 1; --tw-pan-x: ; --tw-pan-y: ; --tw-pinch-zoom: ; --tw-scroll-snap-strictness: proximity; --tw-gradient-from-position: ; --tw-gradient-via-position: ; --tw-gradient-to-position: ; --tw-ordinal: ; --tw-slashed-zero: ; --tw-numeric-figure: ; --tw-numeric-spacing: ; --tw-numeric-fraction: ; --tw-ring-inset: ; --tw-ring-offset-width: 0px; --tw-ring-offset-color: #fff; --tw-ring-color: rgba(59,130,246,.5); --tw-ring-offset-shadow: 0 0 #0000; --tw-ring-shadow: 0 0 #0000; --tw-shadow: 0 0 #0000; --tw-shadow-colored: 0 0 #0000; --tw-blur: ; --tw-brightness: ; --tw-contrast: ; --tw-grayscale: ; --tw-hue-rotate: ; --tw-invert: ; --tw-saturate: ; --tw-sepia: ; --tw-drop-shadow: ; --tw-backdrop-blur: ; --tw-backdrop-brightness: ; --tw-backdrop-contrast: ; --tw-backdrop-grayscale: ; --tw-backdrop-hue-rotate: ; --tw-backdrop-invert: ; --tw-backdrop-opacity: ; --tw-backdrop-saturate: ; --tw-backdrop-sepia: ; --tw-contain-size: ; --tw-contain-layout: ; --tw-contain-paint: ; --tw-contain-style: ; box-sizing: border-box; border-width: 0px; border-style: solid; border-color: hsl(var(--border)); border-image: initial; color: var(--tw-prose-bold); font-family: __Inter_d65c78, __Inter_Fallback_d65c78, ui-sans-serif, system-ui, sans-serif, &amp;quot;Apple Color Emoji&amp;quot;, &amp;quot;Segoe UI Emoji&amp;quot;, &amp;quot;Segoe UI Symbol&amp;quot;, &amp;quot;Noto Color Emoji&amp;quot;; font-size: 16px; text-align: left; background-color: rgba(244, 244, 245, 0.5);&quot;&gt;Электронная подсистема&lt;/span&gt;" style="rounded=0;whiteSpace=wrap;html=1;" parent="1" vertex="1">
          <mxGeometry x="330" y="650" width="120" height="60" as="geometry" />
        </mxCell>
        <mxCell id="43qSj-kFOlz3XDHTkx2G-23" value="&lt;span style=&quot;--tw-border-spacing-x: 0; --tw-border-spacing-y: 0; --tw-translate-x: 0; --tw-translate-y: 0; --tw-rotate: 0; --tw-skew-x: 0; --tw-skew-y: 0; --tw-scale-x: 1; --tw-scale-y: 1; --tw-pan-x: ; --tw-pan-y: ; --tw-pinch-zoom: ; --tw-scroll-snap-strictness: proximity; --tw-gradient-from-position: ; --tw-gradient-via-position: ; --tw-gradient-to-position: ; --tw-ordinal: ; --tw-slashed-zero: ; --tw-numeric-figure: ; --tw-numeric-spacing: ; --tw-numeric-fraction: ; --tw-ring-inset: ; --tw-ring-offset-width: 0px; --tw-ring-offset-color: light-dark(#fff, #000000); --tw-ring-color: light-dark(rgba(59,130,246,.5), #4c89ec); --tw-ring-offset-shadow: 0 0 #0000; --tw-ring-shadow: 0 0 #0000; --tw-shadow: 0 0 #0000; --tw-shadow-colored: 0 0 #0000; --tw-blur: ; --tw-brightness: ; --tw-contrast: ; --tw-grayscale: ; --tw-hue-rotate: ; --tw-invert: ; --tw-saturate: ; --tw-sepia: ; --tw-drop-shadow: ; --tw-backdrop-blur: ; --tw-backdrop-brightness: ; --tw-backdrop-contrast: ; --tw-backdrop-grayscale: ; --tw-backdrop-hue-rotate: ; --tw-backdrop-invert: ; --tw-backdrop-opacity: ; --tw-backdrop-saturate: ; --tw-backdrop-sepia: ; --tw-contain-size: ; --tw-contain-layout: ; --tw-contain-paint: ; --tw-contain-style: ; box-sizing: border-box; border-width: 0px; border-style: solid; border-color: hsl(var(--border)); border-image: initial; color: var(--tw-prose-bold); font-family: __Inter_d65c78, __Inter_Fallback_d65c78, ui-sans-serif, system-ui, sans-serif, &amp;quot;Apple Color Emoji&amp;quot;, &amp;quot;Segoe UI Emoji&amp;quot;, &amp;quot;Segoe UI Symbol&amp;quot;, &amp;quot;Noto Color Emoji&amp;quot;; font-size: 16px; text-align: left; background-color: rgba(244, 244, 245, 0.5);&quot;&gt;Топливная подсистема&lt;/span&gt;" style="rounded=0;whiteSpace=wrap;html=1;" parent="1" vertex="1">
          <mxGeometry x="495" y="650" width="120" height="60" as="geometry" />
        </mxCell>
        <mxCell id="43qSj-kFOlz3XDHTkx2G-24" value="Двигатель" style="rounded=0;whiteSpace=wrap;html=1;" parent="1" vertex="1">
          <mxGeometry x="20" y="750" width="70" height="50" as="geometry" />
        </mxCell>
        <mxCell id="43qSj-kFOlz3XDHTkx2G-25" value="Трансмиссия" style="rounded=0;whiteSpace=wrap;html=1;" parent="1" vertex="1">
          <mxGeometry x="75" y="830" width="70" height="50" as="geometry" />
        </mxCell>
        <mxCell id="43qSj-kFOlz3XDHTkx2G-26" value="Колёса" style="rounded=0;whiteSpace=wrap;html=1;" parent="1" vertex="1">
          <mxGeometry x="190" y="780" width="70" height="50" as="geometry" />
        </mxCell>
        <mxCell id="43qSj-kFOlz3XDHTkx2G-27" value="Датчики" style="rounded=0;whiteSpace=wrap;html=1;" parent="1" vertex="1">
          <mxGeometry x="355.25" y="750" width="70" height="50" as="geometry" />
        </mxCell>
        <mxCell id="43qSj-kFOlz3XDHTkx2G-28" value="Аккумулятор" style="rounded=0;whiteSpace=wrap;html=1;" parent="1" vertex="1">
          <mxGeometry x="270" y="830" width="70" height="50" as="geometry" />
        </mxCell>
        <mxCell id="43qSj-kFOlz3XDHTkx2G-29" value="Фары, прочее освещение" style="rounded=0;whiteSpace=wrap;html=1;" parent="1" vertex="1">
          <mxGeometry x="410.5" y="840" width="84" height="50" as="geometry" />
        </mxCell>
        <mxCell id="43qSj-kFOlz3XDHTkx2G-30" value="Топливный бак" style="rounded=0;whiteSpace=wrap;html=1;" parent="1" vertex="1">
          <mxGeometry x="480" y="760" width="70" height="50" as="geometry" />
        </mxCell>
        <mxCell id="43qSj-kFOlz3XDHTkx2G-31" value="Трубы" style="rounded=0;whiteSpace=wrap;html=1;" parent="1" vertex="1">
          <mxGeometry x="590" y="755" width="110" height="60" as="geometry" />
        </mxCell>
        <mxCell id="43qSj-kFOlz3XDHTkx2G-32" value="" style="endArrow=classic;html=1;rounded=0;exitX=0.5;exitY=1;exitDx=0;exitDy=0;entryX=0.5;entryY=0;entryDx=0;entryDy=0;" parent="1" source="43qSj-kFOlz3XDHTkx2G-20" target="43qSj-kFOlz3XDHTkx2G-22" edge="1">
          <mxGeometry width="50" height="50" relative="1" as="geometry">
            <mxPoint x="370" y="790" as="sourcePoint" />
            <mxPoint x="420" y="740" as="targetPoint" />
          </mxGeometry>
        </mxCell>
        <mxCell id="43qSj-kFOlz3XDHTkx2G-33" value="" style="endArrow=classic;html=1;rounded=0;entryX=0.5;entryY=0;entryDx=0;entryDy=0;exitX=0.75;exitY=1;exitDx=0;exitDy=0;" parent="1" source="43qSj-kFOlz3XDHTkx2G-20" target="43qSj-kFOlz3XDHTkx2G-23" edge="1">
          <mxGeometry width="50" height="50" relative="1" as="geometry">
            <mxPoint x="420" y="620" as="sourcePoint" />
            <mxPoint x="420" y="740" as="targetPoint" />
          </mxGeometry>
        </mxCell>
        <mxCell id="43qSj-kFOlz3XDHTkx2G-34" value="" style="endArrow=classic;html=1;rounded=0;entryX=0.5;entryY=0;entryDx=0;entryDy=0;exitX=0.25;exitY=1;exitDx=0;exitDy=0;" parent="1" source="43qSj-kFOlz3XDHTkx2G-20" target="43qSj-kFOlz3XDHTkx2G-21" edge="1">
          <mxGeometry width="50" height="50" relative="1" as="geometry">
            <mxPoint x="380" y="800" as="sourcePoint" />
            <mxPoint x="430" y="750" as="targetPoint" />
          </mxGeometry>
        </mxCell>
        <mxCell id="43qSj-kFOlz3XDHTkx2G-35" value="" style="endArrow=classic;html=1;rounded=0;entryX=0.5;entryY=0;entryDx=0;entryDy=0;exitX=0.5;exitY=1;exitDx=0;exitDy=0;" parent="1" source="43qSj-kFOlz3XDHTkx2G-23" target="43qSj-kFOlz3XDHTkx2G-30" edge="1">
          <mxGeometry width="50" height="50" relative="1" as="geometry">
            <mxPoint x="390" y="810" as="sourcePoint" />
            <mxPoint x="440" y="760" as="targetPoint" />
          </mxGeometry>
        </mxCell>
        <mxCell id="43qSj-kFOlz3XDHTkx2G-36" value="" style="endArrow=classic;html=1;rounded=0;entryX=0.5;entryY=0;entryDx=0;entryDy=0;exitX=0.5;exitY=1;exitDx=0;exitDy=0;" parent="1" source="43qSj-kFOlz3XDHTkx2G-23" target="43qSj-kFOlz3XDHTkx2G-31" edge="1">
          <mxGeometry width="50" height="50" relative="1" as="geometry">
            <mxPoint x="400" y="820" as="sourcePoint" />
            <mxPoint x="450" y="770" as="targetPoint" />
          </mxGeometry>
        </mxCell>
        <mxCell id="43qSj-kFOlz3XDHTkx2G-37" value="" style="endArrow=classic;html=1;rounded=0;entryX=0.5;entryY=0;entryDx=0;entryDy=0;exitX=0.75;exitY=1;exitDx=0;exitDy=0;" parent="1" source="43qSj-kFOlz3XDHTkx2G-22" target="43qSj-kFOlz3XDHTkx2G-29" edge="1">
          <mxGeometry width="50" height="50" relative="1" as="geometry">
            <mxPoint x="410" y="830" as="sourcePoint" />
            <mxPoint x="460" y="780" as="targetPoint" />
          </mxGeometry>
        </mxCell>
        <mxCell id="43qSj-kFOlz3XDHTkx2G-38" value="" style="endArrow=classic;html=1;rounded=0;entryX=0.5;entryY=0;entryDx=0;entryDy=0;exitX=0.25;exitY=1;exitDx=0;exitDy=0;" parent="1" source="43qSj-kFOlz3XDHTkx2G-22" target="43qSj-kFOlz3XDHTkx2G-28" edge="1">
          <mxGeometry width="50" height="50" relative="1" as="geometry">
            <mxPoint x="420" y="840" as="sourcePoint" />
            <mxPoint x="470" y="790" as="targetPoint" />
          </mxGeometry>
        </mxCell>
        <mxCell id="43qSj-kFOlz3XDHTkx2G-39" value="" style="endArrow=classic;html=1;rounded=0;entryX=0.5;entryY=0;entryDx=0;entryDy=0;exitX=0.5;exitY=1;exitDx=0;exitDy=0;" parent="1" source="43qSj-kFOlz3XDHTkx2G-22" target="43qSj-kFOlz3XDHTkx2G-27" edge="1">
          <mxGeometry width="50" height="50" relative="1" as="geometry">
            <mxPoint x="430" y="850" as="sourcePoint" />
            <mxPoint x="480" y="800" as="targetPoint" />
          </mxGeometry>
        </mxCell>
        <mxCell id="43qSj-kFOlz3XDHTkx2G-40" value="" style="endArrow=classic;html=1;rounded=0;entryX=0.5;entryY=0;entryDx=0;entryDy=0;exitX=0.5;exitY=1;exitDx=0;exitDy=0;" parent="1" source="43qSj-kFOlz3XDHTkx2G-21" target="43qSj-kFOlz3XDHTkx2G-25" edge="1">
          <mxGeometry width="50" height="50" relative="1" as="geometry">
            <mxPoint x="440" y="860" as="sourcePoint" />
            <mxPoint x="490" y="810" as="targetPoint" />
          </mxGeometry>
        </mxCell>
        <mxCell id="43qSj-kFOlz3XDHTkx2G-41" value="" style="endArrow=classic;html=1;rounded=0;entryX=0.5;entryY=0;entryDx=0;entryDy=0;exitX=0.674;exitY=0.997;exitDx=0;exitDy=0;exitPerimeter=0;" parent="1" source="43qSj-kFOlz3XDHTkx2G-21" target="43qSj-kFOlz3XDHTkx2G-26" edge="1">
          <mxGeometry width="50" height="50" relative="1" as="geometry">
            <mxPoint x="450" y="870" as="sourcePoint" />
            <mxPoint x="500" y="820" as="targetPoint" />
          </mxGeometry>
        </mxCell>
        <mxCell id="43qSj-kFOlz3XDHTkx2G-42" value="" style="endArrow=classic;html=1;rounded=0;entryX=0.5;entryY=0;entryDx=0;entryDy=0;exitX=0.322;exitY=0.998;exitDx=0;exitDy=0;exitPerimeter=0;" parent="1" source="43qSj-kFOlz3XDHTkx2G-21" target="43qSj-kFOlz3XDHTkx2G-24" edge="1">
          <mxGeometry width="50" height="50" relative="1" as="geometry">
            <mxPoint x="460" y="880" as="sourcePoint" />
            <mxPoint x="510" y="830" as="targetPoint" />
          </mxGeometry>
        </mxCell>
        <mxCell id="43qSj-kFOlz3XDHTkx2G-45" value="" style="rounded=1;whiteSpace=wrap;html=1;" parent="1" vertex="1">
          <mxGeometry x="299" y="1210" width="170" height="80" as="geometry" />
        </mxCell>
        <mxCell id="43qSj-kFOlz3XDHTkx2G-46" value="" style="endArrow=classic;html=1;rounded=0;" parent="1" edge="1">
          <mxGeometry width="50" height="50" relative="1" as="geometry">
            <mxPoint x="249" y="1220" as="sourcePoint" />
            <mxPoint x="298" y="1220" as="targetPoint" />
            <Array as="points">
              <mxPoint x="219" y="1220" />
              <mxPoint x="248" y="1220" />
            </Array>
          </mxGeometry>
        </mxCell>
        <mxCell id="43qSj-kFOlz3XDHTkx2G-47" value="" style="endArrow=classic;html=1;rounded=0;" parent="1" edge="1">
          <mxGeometry width="50" height="50" relative="1" as="geometry">
            <mxPoint x="299" y="1250" as="sourcePoint" />
            <mxPoint x="298" y="1250" as="targetPoint" />
            <Array as="points">
              <mxPoint x="219" y="1250" />
            </Array>
          </mxGeometry>
        </mxCell>
        <mxCell id="43qSj-kFOlz3XDHTkx2G-48" value="" style="endArrow=classic;html=1;rounded=0;" parent="1" edge="1">
          <mxGeometry width="50" height="50" relative="1" as="geometry">
            <mxPoint x="298" y="1280" as="sourcePoint" />
            <mxPoint x="298" y="1280" as="targetPoint" />
            <Array as="points">
              <mxPoint x="219" y="1280" />
            </Array>
          </mxGeometry>
        </mxCell>
        <mxCell id="43qSj-kFOlz3XDHTkx2G-49" value="" style="endArrow=classic;html=1;rounded=0;" parent="1" edge="1">
          <mxGeometry width="50" height="50" relative="1" as="geometry">
            <mxPoint x="468.75" y="1234" as="sourcePoint" />
            <mxPoint x="550.75" y="1234" as="targetPoint" />
          </mxGeometry>
        </mxCell>
        <mxCell id="43qSj-kFOlz3XDHTkx2G-50" value="Птицеферма" style="text;html=1;align=center;verticalAlign=middle;whiteSpace=wrap;rounded=0;" parent="1" vertex="1">
          <mxGeometry x="330" y="1235" width="110" height="30" as="geometry" />
        </mxCell>
        <mxCell id="43qSj-kFOlz3XDHTkx2G-51" value="&lt;span style=&quot;font-size: 10px;&quot;&gt;Заказ на производство продукции&lt;/span&gt;" style="text;html=1;align=center;verticalAlign=middle;resizable=0;points=[];autosize=1;strokeColor=none;fillColor=none;" parent="1" vertex="1">
          <mxGeometry x="120" y="1190" width="180" height="30" as="geometry" />
        </mxCell>
        <mxCell id="43qSj-kFOlz3XDHTkx2G-52" value="&lt;font size=&quot;1&quot;&gt;Анализ рынка&lt;/font&gt;" style="text;html=1;align=center;verticalAlign=middle;resizable=0;points=[];autosize=1;strokeColor=none;fillColor=none;" parent="1" vertex="1">
          <mxGeometry x="175" y="1220" width="90" height="30" as="geometry" />
        </mxCell>
        <mxCell id="43qSj-kFOlz3XDHTkx2G-53" value="&lt;font size=&quot;1&quot;&gt;Продукция&lt;/font&gt;" style="text;html=1;align=center;verticalAlign=middle;resizable=0;points=[];autosize=1;strokeColor=none;fillColor=none;" parent="1" vertex="1">
          <mxGeometry x="490.25" y="1204" width="70" height="30" as="geometry" />
        </mxCell>
        <mxCell id="43qSj-kFOlz3XDHTkx2G-54" value="&lt;span style=&quot;font-size: 10px;&quot;&gt;Корм&lt;/span&gt;" style="text;html=1;align=center;verticalAlign=middle;resizable=0;points=[];autosize=1;strokeColor=none;fillColor=none;" parent="1" vertex="1">
          <mxGeometry x="195" y="1250" width="50" height="30" as="geometry" />
        </mxCell>
        <mxCell id="43qSj-kFOlz3XDHTkx2G-79" value="Птицеферма" style="rounded=0;whiteSpace=wrap;html=1;" parent="1" vertex="1">
          <mxGeometry x="330.25" y="1430" width="120" height="60" as="geometry" />
        </mxCell>
        <mxCell id="43qSj-kFOlz3XDHTkx2G-81" value="&lt;span style=&quot;--tw-border-spacing-x: 0; --tw-border-spacing-y: 0; --tw-translate-x: 0; --tw-translate-y: 0; --tw-rotate: 0; --tw-skew-x: 0; --tw-skew-y: 0; --tw-scale-x: 1; --tw-scale-y: 1; --tw-pan-x: ; --tw-pan-y: ; --tw-pinch-zoom: ; --tw-scroll-snap-strictness: proximity; --tw-gradient-from-position: ; --tw-gradient-via-position: ; --tw-gradient-to-position: ; --tw-ordinal: ; --tw-slashed-zero: ; --tw-numeric-figure: ; --tw-numeric-spacing: ; --tw-numeric-fraction: ; --tw-ring-inset: ; --tw-ring-offset-width: 0px; --tw-ring-offset-color: light-dark(#fff, #000000); --tw-ring-color: light-dark(rgba(59,130,246,.5), #4c89ec); --tw-ring-offset-shadow: 0 0 #0000; --tw-ring-shadow: 0 0 #0000; --tw-shadow: 0 0 #0000; --tw-shadow-colored: 0 0 #0000; --tw-blur: ; --tw-brightness: ; --tw-contrast: ; --tw-grayscale: ; --tw-hue-rotate: ; --tw-invert: ; --tw-saturate: ; --tw-sepia: ; --tw-drop-shadow: ; --tw-backdrop-blur: ; --tw-backdrop-brightness: ; --tw-backdrop-contrast: ; --tw-backdrop-grayscale: ; --tw-backdrop-hue-rotate: ; --tw-backdrop-invert: ; --tw-backdrop-opacity: ; --tw-backdrop-saturate: ; --tw-backdrop-sepia: ; --tw-contain-size: ; --tw-contain-layout: ; --tw-contain-paint: ; --tw-contain-style: ; box-sizing: border-box; border-width: 0px; border-style: solid; border-color: hsl(var(--border)); border-image: initial; color: var(--tw-prose-bold); font-family: __Inter_d65c78, __Inter_Fallback_d65c78, ui-sans-serif, system-ui, sans-serif, &amp;quot;Apple Color Emoji&amp;quot;, &amp;quot;Segoe UI Emoji&amp;quot;, &amp;quot;Segoe UI Symbol&amp;quot;, &amp;quot;Noto Color Emoji&amp;quot;; font-size: 16px; text-align: left; background-color: rgba(244, 244, 245, 0.5);&quot;&gt;Административная подсистема&lt;/span&gt;" style="rounded=0;whiteSpace=wrap;html=1;" parent="1" vertex="1">
          <mxGeometry x="140.25" y="1540" width="139.5" height="60" as="geometry" />
        </mxCell>
        <mxCell id="43qSj-kFOlz3XDHTkx2G-82" value="&lt;span style=&quot;--tw-border-spacing-x: 0; --tw-border-spacing-y: 0; --tw-translate-x: 0; --tw-translate-y: 0; --tw-rotate: 0; --tw-skew-x: 0; --tw-skew-y: 0; --tw-scale-x: 1; --tw-scale-y: 1; --tw-pan-x: ; --tw-pan-y: ; --tw-pinch-zoom: ; --tw-scroll-snap-strictness: proximity; --tw-gradient-from-position: ; --tw-gradient-via-position: ; --tw-gradient-to-position: ; --tw-ordinal: ; --tw-slashed-zero: ; --tw-numeric-figure: ; --tw-numeric-spacing: ; --tw-numeric-fraction: ; --tw-ring-inset: ; --tw-ring-offset-width: 0px; --tw-ring-offset-color: light-dark(#fff, #000000); --tw-ring-color: light-dark(rgba(59,130,246,.5), #4c89ec); --tw-ring-offset-shadow: 0 0 #0000; --tw-ring-shadow: 0 0 #0000; --tw-shadow: 0 0 #0000; --tw-shadow-colored: 0 0 #0000; --tw-blur: ; --tw-brightness: ; --tw-contrast: ; --tw-grayscale: ; --tw-hue-rotate: ; --tw-invert: ; --tw-saturate: ; --tw-sepia: ; --tw-drop-shadow: ; --tw-backdrop-blur: ; --tw-backdrop-brightness: ; --tw-backdrop-contrast: ; --tw-backdrop-grayscale: ; --tw-backdrop-hue-rotate: ; --tw-backdrop-invert: ; --tw-backdrop-opacity: ; --tw-backdrop-saturate: ; --tw-backdrop-sepia: ; --tw-contain-size: ; --tw-contain-layout: ; --tw-contain-paint: ; --tw-contain-style: ; box-sizing: border-box; border-width: 0px; border-style: solid; border-color: hsl(var(--border)); border-image: initial; color: var(--tw-prose-bold); font-family: __Inter_d65c78, __Inter_Fallback_d65c78, ui-sans-serif, system-ui, sans-serif, &amp;quot;Apple Color Emoji&amp;quot;, &amp;quot;Segoe UI Emoji&amp;quot;, &amp;quot;Segoe UI Symbol&amp;quot;, &amp;quot;Noto Color Emoji&amp;quot;; font-size: 16px; text-align: left; background-color: rgba(244, 244, 245, 0.5);&quot;&gt;Логистическая подсистема&lt;/span&gt;" style="rounded=0;whiteSpace=wrap;html=1;" parent="1" vertex="1">
          <mxGeometry x="330.25" y="1540" width="120" height="60" as="geometry" />
        </mxCell>
        <mxCell id="43qSj-kFOlz3XDHTkx2G-86" value="Финансовый отдел" style="rounded=0;whiteSpace=wrap;html=1;" parent="1" vertex="1">
          <mxGeometry x="114" y="1670" width="70" height="50" as="geometry" />
        </mxCell>
        <mxCell id="43qSj-kFOlz3XDHTkx2G-87" value="Управление персоналом" style="rounded=0;whiteSpace=wrap;html=1;" parent="1" vertex="1">
          <mxGeometry x="10" y="1720" width="70" height="50" as="geometry" />
        </mxCell>
        <mxCell id="43qSj-kFOlz3XDHTkx2G-88" value="Маркетинг и реклама" style="rounded=0;whiteSpace=wrap;html=1;" parent="1" vertex="1">
          <mxGeometry x="205" y="1720" width="70" height="50" as="geometry" />
        </mxCell>
        <mxCell id="43qSj-kFOlz3XDHTkx2G-89" value="Отдел закупок" style="rounded=0;whiteSpace=wrap;html=1;" parent="1" vertex="1">
          <mxGeometry x="299" y="1685" width="70" height="50" as="geometry" />
        </mxCell>
        <mxCell id="43qSj-kFOlz3XDHTkx2G-90" value="&lt;div&gt;Отдел доставок&lt;/div&gt;" style="rounded=0;whiteSpace=wrap;html=1;" parent="1" vertex="1">
          <mxGeometry x="409.5" y="1680" width="110" height="60" as="geometry" />
        </mxCell>
        <mxCell id="43qSj-kFOlz3XDHTkx2G-91" value="" style="endArrow=classic;html=1;rounded=0;exitX=0.5;exitY=1;exitDx=0;exitDy=0;entryX=0.5;entryY=0;entryDx=0;entryDy=0;" parent="1" source="43qSj-kFOlz3XDHTkx2G-79" target="43qSj-kFOlz3XDHTkx2G-81" edge="1">
          <mxGeometry width="50" height="50" relative="1" as="geometry">
            <mxPoint x="369.5" y="1705" as="sourcePoint" />
            <mxPoint x="419.5" y="1655" as="targetPoint" />
          </mxGeometry>
        </mxCell>
        <mxCell id="43qSj-kFOlz3XDHTkx2G-92" value="" style="endArrow=classic;html=1;rounded=0;entryX=0.5;entryY=0;entryDx=0;entryDy=0;exitX=0.5;exitY=1;exitDx=0;exitDy=0;" parent="1" source="43qSj-kFOlz3XDHTkx2G-79" target="43qSj-kFOlz3XDHTkx2G-82" edge="1">
          <mxGeometry width="50" height="50" relative="1" as="geometry">
            <mxPoint x="419.5" y="1535" as="sourcePoint" />
            <mxPoint x="419.5" y="1655" as="targetPoint" />
          </mxGeometry>
        </mxCell>
        <mxCell id="43qSj-kFOlz3XDHTkx2G-94" value="" style="endArrow=classic;html=1;rounded=0;entryX=0.5;entryY=0;entryDx=0;entryDy=0;exitX=0.5;exitY=1;exitDx=0;exitDy=0;" parent="1" source="43qSj-kFOlz3XDHTkx2G-82" target="43qSj-kFOlz3XDHTkx2G-89" edge="1">
          <mxGeometry width="50" height="50" relative="1" as="geometry">
            <mxPoint x="204.75" y="1761" as="sourcePoint" />
            <mxPoint x="254.75" y="1711" as="targetPoint" />
          </mxGeometry>
        </mxCell>
        <mxCell id="43qSj-kFOlz3XDHTkx2G-95" value="" style="endArrow=classic;html=1;rounded=0;entryX=0.5;entryY=0;entryDx=0;entryDy=0;exitX=0.5;exitY=1;exitDx=0;exitDy=0;" parent="1" source="43qSj-kFOlz3XDHTkx2G-82" target="43qSj-kFOlz3XDHTkx2G-90" edge="1">
          <mxGeometry width="50" height="50" relative="1" as="geometry">
            <mxPoint x="214.75" y="1771" as="sourcePoint" />
            <mxPoint x="264.75" y="1721" as="targetPoint" />
          </mxGeometry>
        </mxCell>
        <mxCell id="43qSj-kFOlz3XDHTkx2G-96" value="" style="endArrow=classic;html=1;rounded=0;entryX=0.5;entryY=0;entryDx=0;entryDy=0;exitX=0.75;exitY=1;exitDx=0;exitDy=0;" parent="1" source="43qSj-kFOlz3XDHTkx2G-81" target="43qSj-kFOlz3XDHTkx2G-88" edge="1">
          <mxGeometry width="50" height="50" relative="1" as="geometry">
            <mxPoint x="169.5" y="1756" as="sourcePoint" />
            <mxPoint x="219.5" y="1706" as="targetPoint" />
          </mxGeometry>
        </mxCell>
        <mxCell id="43qSj-kFOlz3XDHTkx2G-97" value="" style="endArrow=classic;html=1;rounded=0;entryX=0.5;entryY=0;entryDx=0;entryDy=0;exitX=0.25;exitY=1;exitDx=0;exitDy=0;" parent="1" source="43qSj-kFOlz3XDHTkx2G-81" target="43qSj-kFOlz3XDHTkx2G-87" edge="1">
          <mxGeometry width="50" height="50" relative="1" as="geometry">
            <mxPoint x="179.5" y="1766" as="sourcePoint" />
            <mxPoint x="229.5" y="1716" as="targetPoint" />
          </mxGeometry>
        </mxCell>
        <mxCell id="43qSj-kFOlz3XDHTkx2G-98" value="" style="endArrow=classic;html=1;rounded=0;entryX=0.5;entryY=0;entryDx=0;entryDy=0;exitX=0.5;exitY=1;exitDx=0;exitDy=0;" parent="1" source="43qSj-kFOlz3XDHTkx2G-81" target="43qSj-kFOlz3XDHTkx2G-86" edge="1">
          <mxGeometry width="50" height="50" relative="1" as="geometry">
            <mxPoint x="189.5" y="1776" as="sourcePoint" />
            <mxPoint x="239.5" y="1726" as="targetPoint" />
          </mxGeometry>
        </mxCell>
        <mxCell id="C7OkJGBz_WWJaQzHo4HG-4" style="edgeStyle=orthogonalEdgeStyle;rounded=0;orthogonalLoop=1;jettySize=auto;html=1;entryX=0.5;entryY=0;entryDx=0;entryDy=0;" edge="1" parent="1" source="43qSj-kFOlz3XDHTkx2G-110" target="43qSj-kFOlz3XDHTkx2G-112">
          <mxGeometry relative="1" as="geometry" />
        </mxCell>
        <mxCell id="C7OkJGBz_WWJaQzHo4HG-5" style="edgeStyle=orthogonalEdgeStyle;rounded=0;orthogonalLoop=1;jettySize=auto;html=1;" edge="1" parent="1" source="43qSj-kFOlz3XDHTkx2G-110" target="43qSj-kFOlz3XDHTkx2G-113">
          <mxGeometry relative="1" as="geometry">
            <Array as="points">
              <mxPoint x="550" y="1620" />
              <mxPoint x="750" y="1620" />
            </Array>
          </mxGeometry>
        </mxCell>
        <mxCell id="43qSj-kFOlz3XDHTkx2G-110" value="&lt;span style=&quot;--tw-border-spacing-x: 0; --tw-border-spacing-y: 0; --tw-translate-x: 0; --tw-translate-y: 0; --tw-rotate: 0; --tw-skew-x: 0; --tw-skew-y: 0; --tw-scale-x: 1; --tw-scale-y: 1; --tw-pan-x: ; --tw-pan-y: ; --tw-pinch-zoom: ; --tw-scroll-snap-strictness: proximity; --tw-gradient-from-position: ; --tw-gradient-via-position: ; --tw-gradient-to-position: ; --tw-ordinal: ; --tw-slashed-zero: ; --tw-numeric-figure: ; --tw-numeric-spacing: ; --tw-numeric-fraction: ; --tw-ring-inset: ; --tw-ring-offset-width: 0px; --tw-ring-offset-color: light-dark(#fff, #000000); --tw-ring-color: light-dark(rgba(59,130,246,.5), #4c89ec); --tw-ring-offset-shadow: 0 0 #0000; --tw-ring-shadow: 0 0 #0000; --tw-shadow: 0 0 #0000; --tw-shadow-colored: 0 0 #0000; --tw-blur: ; --tw-brightness: ; --tw-contrast: ; --tw-grayscale: ; --tw-hue-rotate: ; --tw-invert: ; --tw-saturate: ; --tw-sepia: ; --tw-drop-shadow: ; --tw-backdrop-blur: ; --tw-backdrop-brightness: ; --tw-backdrop-contrast: ; --tw-backdrop-grayscale: ; --tw-backdrop-hue-rotate: ; --tw-backdrop-invert: ; --tw-backdrop-opacity: ; --tw-backdrop-saturate: ; --tw-backdrop-sepia: ; --tw-contain-size: ; --tw-contain-layout: ; --tw-contain-paint: ; --tw-contain-style: ; box-sizing: border-box; border-width: 0px; border-style: solid; border-color: hsl(var(--border)); border-image: initial; color: var(--tw-prose-bold); font-family: __Inter_d65c78, __Inter_Fallback_d65c78, ui-sans-serif, system-ui, sans-serif, &amp;quot;Apple Color Emoji&amp;quot;, &amp;quot;Segoe UI Emoji&amp;quot;, &amp;quot;Segoe UI Symbol&amp;quot;, &amp;quot;Noto Color Emoji&amp;quot;; font-size: 16px; text-align: left; background-color: rgba(244, 244, 245, 0.5);&quot;&gt;Складская подсистема&lt;/span&gt;" style="rounded=0;whiteSpace=wrap;html=1;" parent="1" vertex="1">
          <mxGeometry x="489.5" y="1540" width="120" height="60" as="geometry" />
        </mxCell>
        <mxCell id="43qSj-kFOlz3XDHTkx2G-112" value="&lt;span style=&quot;--tw-border-spacing-x: 0; --tw-border-spacing-y: 0; --tw-translate-x: 0; --tw-translate-y: 0; --tw-rotate: 0; --tw-skew-x: 0; --tw-skew-y: 0; --tw-scale-x: 1; --tw-scale-y: 1; --tw-pan-x: ; --tw-pan-y: ; --tw-pinch-zoom: ; --tw-scroll-snap-strictness: proximity; --tw-gradient-from-position: ; --tw-gradient-via-position: ; --tw-gradient-to-position: ; --tw-ordinal: ; --tw-slashed-zero: ; --tw-numeric-figure: ; --tw-numeric-spacing: ; --tw-numeric-fraction: ; --tw-ring-inset: ; --tw-ring-offset-width: 0px; --tw-ring-offset-color: light-dark(#fff, #000000); --tw-ring-color: light-dark(rgba(59,130,246,.5), #4c89ec); --tw-ring-offset-shadow: 0 0 #0000; --tw-ring-shadow: 0 0 #0000; --tw-shadow: 0 0 #0000; --tw-shadow-colored: 0 0 #0000; --tw-blur: ; --tw-brightness: ; --tw-contrast: ; --tw-grayscale: ; --tw-hue-rotate: ; --tw-invert: ; --tw-saturate: ; --tw-sepia: ; --tw-drop-shadow: ; --tw-backdrop-blur: ; --tw-backdrop-brightness: ; --tw-backdrop-contrast: ; --tw-backdrop-grayscale: ; --tw-backdrop-hue-rotate: ; --tw-backdrop-invert: ; --tw-backdrop-opacity: ; --tw-backdrop-saturate: ; --tw-backdrop-sepia: ; --tw-contain-size: ; --tw-contain-layout: ; --tw-contain-paint: ; --tw-contain-style: ; box-sizing: border-box; border-width: 0px; border-style: solid; border-color: hsl(var(--border)); border-image: initial; color: var(--tw-prose-bold); font-family: __Inter_d65c78, __Inter_Fallback_d65c78, ui-sans-serif, system-ui, sans-serif, &amp;quot;Apple Color Emoji&amp;quot;, &amp;quot;Segoe UI Emoji&amp;quot;, &amp;quot;Segoe UI Symbol&amp;quot;, &amp;quot;Noto Color Emoji&amp;quot;; font-size: 16px; text-align: left; background-color: rgba(244, 244, 245, 0.5);&quot;&gt;Зона хранения готовой продукции&lt;/span&gt;" style="rounded=0;whiteSpace=wrap;html=1;" parent="1" vertex="1">
          <mxGeometry x="560.25" y="1675" width="119.75" height="80" as="geometry" />
        </mxCell>
        <mxCell id="43qSj-kFOlz3XDHTkx2G-113" value="&lt;div style=&quot;text-align: left;&quot;&gt;&lt;span style=&quot;color: light-dark(rgb(0, 0, 0), rgb(255, 255, 255)); font-size: 16px; background-color: rgba(244, 244, 245, 0.5);&quot;&gt;&lt;font face=&quot;__Inter_d65c78, __Inter_Fallback_d65c78, ui-sans-serif, system-ui, sans-serif, Apple Color Emoji, Segoe UI Emoji, Segoe UI Symbol, Noto Color Emoji&quot;&gt;Система учета запасов&lt;/font&gt;&lt;/span&gt;&lt;/div&gt;" style="rounded=0;whiteSpace=wrap;html=1;" parent="1" vertex="1">
          <mxGeometry x="710" y="1685" width="80" height="70" as="geometry" />
        </mxCell>
        <mxCell id="2JqN4gbz4xMH9JMgia-E-2" value="" style="endArrow=classic;html=1;rounded=0;" parent="1" edge="1">
          <mxGeometry width="50" height="50" relative="1" as="geometry">
            <mxPoint x="468" y="1265" as="sourcePoint" />
            <mxPoint x="550" y="1265" as="targetPoint" />
          </mxGeometry>
        </mxCell>
        <mxCell id="2JqN4gbz4xMH9JMgia-E-3" value="&lt;font size=&quot;1&quot;&gt;Доход&lt;/font&gt;" style="text;html=1;align=center;verticalAlign=middle;resizable=0;points=[];autosize=1;strokeColor=none;fillColor=none;" parent="1" vertex="1">
          <mxGeometry x="489.5" y="1235" width="50" height="30" as="geometry" />
        </mxCell>
        <mxCell id="C7OkJGBz_WWJaQzHo4HG-7" value="" style="endArrow=classic;html=1;rounded=0;exitX=0.5;exitY=1;exitDx=0;exitDy=0;entryX=0.5;entryY=0;entryDx=0;entryDy=0;" edge="1" parent="1" source="43qSj-kFOlz3XDHTkx2G-79" target="43qSj-kFOlz3XDHTkx2G-110">
          <mxGeometry width="50" height="50" relative="1" as="geometry">
            <mxPoint x="470" y="1640" as="sourcePoint" />
            <mxPoint x="520" y="1590" as="targetPoint" />
          </mxGeometry>
        </mxCell>
        <mxCell id="C7OkJGBz_WWJaQzHo4HG-14" value="Грузовик" style="rounded=0;whiteSpace=wrap;html=1;" vertex="1" parent="1">
          <mxGeometry x="1080" y="555" width="120" height="60" as="geometry" />
        </mxCell>
        <mxCell id="C7OkJGBz_WWJaQzHo4HG-15" value="&lt;span style=&quot;--tw-border-spacing-x: 0; --tw-border-spacing-y: 0; --tw-translate-x: 0; --tw-translate-y: 0; --tw-rotate: 0; --tw-skew-x: 0; --tw-skew-y: 0; --tw-scale-x: 1; --tw-scale-y: 1; --tw-pan-x: ; --tw-pan-y: ; --tw-pinch-zoom: ; --tw-scroll-snap-strictness: proximity; --tw-gradient-from-position: ; --tw-gradient-via-position: ; --tw-gradient-to-position: ; --tw-ordinal: ; --tw-slashed-zero: ; --tw-numeric-figure: ; --tw-numeric-spacing: ; --tw-numeric-fraction: ; --tw-ring-inset: ; --tw-ring-offset-width: 0px; --tw-ring-offset-color: #fff; --tw-ring-color: rgba(59,130,246,.5); --tw-ring-offset-shadow: 0 0 #0000; --tw-ring-shadow: 0 0 #0000; --tw-shadow: 0 0 #0000; --tw-shadow-colored: 0 0 #0000; --tw-blur: ; --tw-brightness: ; --tw-contrast: ; --tw-grayscale: ; --tw-hue-rotate: ; --tw-invert: ; --tw-saturate: ; --tw-sepia: ; --tw-drop-shadow: ; --tw-backdrop-blur: ; --tw-backdrop-brightness: ; --tw-backdrop-contrast: ; --tw-backdrop-grayscale: ; --tw-backdrop-hue-rotate: ; --tw-backdrop-invert: ; --tw-backdrop-opacity: ; --tw-backdrop-saturate: ; --tw-backdrop-sepia: ; --tw-contain-size: ; --tw-contain-layout: ; --tw-contain-paint: ; --tw-contain-style: ; box-sizing: border-box; border-width: 0px; border-style: solid; border-color: hsl(var(--border)); border-image: initial; color: var(--tw-prose-bold); font-family: __Inter_d65c78, __Inter_Fallback_d65c78, ui-sans-serif, system-ui, sans-serif, &amp;quot;Apple Color Emoji&amp;quot;, &amp;quot;Segoe UI Emoji&amp;quot;, &amp;quot;Segoe UI Symbol&amp;quot;, &amp;quot;Noto Color Emoji&amp;quot;; font-size: 16px; text-align: left; background-color: rgba(244, 244, 245, 0.5);&quot;&gt;Механическая подсистема&lt;/span&gt;" style="rounded=0;whiteSpace=wrap;html=1;" vertex="1" parent="1">
          <mxGeometry x="910" y="650" width="120" height="60" as="geometry" />
        </mxCell>
        <mxCell id="C7OkJGBz_WWJaQzHo4HG-16" value="&lt;span style=&quot;--tw-border-spacing-x: 0; --tw-border-spacing-y: 0; --tw-translate-x: 0; --tw-translate-y: 0; --tw-rotate: 0; --tw-skew-x: 0; --tw-skew-y: 0; --tw-scale-x: 1; --tw-scale-y: 1; --tw-pan-x: ; --tw-pan-y: ; --tw-pinch-zoom: ; --tw-scroll-snap-strictness: proximity; --tw-gradient-from-position: ; --tw-gradient-via-position: ; --tw-gradient-to-position: ; --tw-ordinal: ; --tw-slashed-zero: ; --tw-numeric-figure: ; --tw-numeric-spacing: ; --tw-numeric-fraction: ; --tw-ring-inset: ; --tw-ring-offset-width: 0px; --tw-ring-offset-color: #fff; --tw-ring-color: rgba(59,130,246,.5); --tw-ring-offset-shadow: 0 0 #0000; --tw-ring-shadow: 0 0 #0000; --tw-shadow: 0 0 #0000; --tw-shadow-colored: 0 0 #0000; --tw-blur: ; --tw-brightness: ; --tw-contrast: ; --tw-grayscale: ; --tw-hue-rotate: ; --tw-invert: ; --tw-saturate: ; --tw-sepia: ; --tw-drop-shadow: ; --tw-backdrop-blur: ; --tw-backdrop-brightness: ; --tw-backdrop-contrast: ; --tw-backdrop-grayscale: ; --tw-backdrop-hue-rotate: ; --tw-backdrop-invert: ; --tw-backdrop-opacity: ; --tw-backdrop-saturate: ; --tw-backdrop-sepia: ; --tw-contain-size: ; --tw-contain-layout: ; --tw-contain-paint: ; --tw-contain-style: ; box-sizing: border-box; border-width: 0px; border-style: solid; border-color: hsl(var(--border)); border-image: initial; color: var(--tw-prose-bold); font-family: __Inter_d65c78, __Inter_Fallback_d65c78, ui-sans-serif, system-ui, sans-serif, &amp;quot;Apple Color Emoji&amp;quot;, &amp;quot;Segoe UI Emoji&amp;quot;, &amp;quot;Segoe UI Symbol&amp;quot;, &amp;quot;Noto Color Emoji&amp;quot;; font-size: 16px; text-align: left; background-color: rgba(244, 244, 245, 0.5);&quot;&gt;Электронная подсистема&lt;/span&gt;" style="rounded=0;whiteSpace=wrap;html=1;" vertex="1" parent="1">
          <mxGeometry x="1080" y="650" width="120" height="60" as="geometry" />
        </mxCell>
        <mxCell id="C7OkJGBz_WWJaQzHo4HG-17" value="&lt;span style=&quot;--tw-border-spacing-x: 0; --tw-border-spacing-y: 0; --tw-translate-x: 0; --tw-translate-y: 0; --tw-rotate: 0; --tw-skew-x: 0; --tw-skew-y: 0; --tw-scale-x: 1; --tw-scale-y: 1; --tw-pan-x: ; --tw-pan-y: ; --tw-pinch-zoom: ; --tw-scroll-snap-strictness: proximity; --tw-gradient-from-position: ; --tw-gradient-via-position: ; --tw-gradient-to-position: ; --tw-ordinal: ; --tw-slashed-zero: ; --tw-numeric-figure: ; --tw-numeric-spacing: ; --tw-numeric-fraction: ; --tw-ring-inset: ; --tw-ring-offset-width: 0px; --tw-ring-offset-color: light-dark(#fff, #000000); --tw-ring-color: light-dark(rgba(59,130,246,.5), #4c89ec); --tw-ring-offset-shadow: 0 0 #0000; --tw-ring-shadow: 0 0 #0000; --tw-shadow: 0 0 #0000; --tw-shadow-colored: 0 0 #0000; --tw-blur: ; --tw-brightness: ; --tw-contrast: ; --tw-grayscale: ; --tw-hue-rotate: ; --tw-invert: ; --tw-saturate: ; --tw-sepia: ; --tw-drop-shadow: ; --tw-backdrop-blur: ; --tw-backdrop-brightness: ; --tw-backdrop-contrast: ; --tw-backdrop-grayscale: ; --tw-backdrop-hue-rotate: ; --tw-backdrop-invert: ; --tw-backdrop-opacity: ; --tw-backdrop-saturate: ; --tw-backdrop-sepia: ; --tw-contain-size: ; --tw-contain-layout: ; --tw-contain-paint: ; --tw-contain-style: ; box-sizing: border-box; border-width: 0px; border-style: solid; border-color: hsl(var(--border)); border-image: initial; color: var(--tw-prose-bold); font-family: __Inter_d65c78, __Inter_Fallback_d65c78, ui-sans-serif, system-ui, sans-serif, &amp;quot;Apple Color Emoji&amp;quot;, &amp;quot;Segoe UI Emoji&amp;quot;, &amp;quot;Segoe UI Symbol&amp;quot;, &amp;quot;Noto Color Emoji&amp;quot;; font-size: 16px; text-align: left; background-color: rgba(244, 244, 245, 0.5);&quot;&gt;Топливная подсистема&lt;/span&gt;" style="rounded=0;whiteSpace=wrap;html=1;" vertex="1" parent="1">
          <mxGeometry x="1245" y="650" width="120" height="60" as="geometry" />
        </mxCell>
        <mxCell id="C7OkJGBz_WWJaQzHo4HG-18" value="Двигатель" style="rounded=0;whiteSpace=wrap;html=1;" vertex="1" parent="1">
          <mxGeometry x="770" y="750" width="70" height="50" as="geometry" />
        </mxCell>
        <mxCell id="C7OkJGBz_WWJaQzHo4HG-19" value="Трансмиссия" style="rounded=0;whiteSpace=wrap;html=1;" vertex="1" parent="1">
          <mxGeometry x="825" y="830" width="70" height="50" as="geometry" />
        </mxCell>
        <mxCell id="C7OkJGBz_WWJaQzHo4HG-20" value="Колёса" style="rounded=0;whiteSpace=wrap;html=1;" vertex="1" parent="1">
          <mxGeometry x="940" y="780" width="70" height="50" as="geometry" />
        </mxCell>
        <mxCell id="C7OkJGBz_WWJaQzHo4HG-21" value="Датчики" style="rounded=0;whiteSpace=wrap;html=1;" vertex="1" parent="1">
          <mxGeometry x="1105.25" y="750" width="70" height="50" as="geometry" />
        </mxCell>
        <mxCell id="C7OkJGBz_WWJaQzHo4HG-22" value="Аккумулятор" style="rounded=0;whiteSpace=wrap;html=1;" vertex="1" parent="1">
          <mxGeometry x="1020" y="830" width="70" height="50" as="geometry" />
        </mxCell>
        <mxCell id="C7OkJGBz_WWJaQzHo4HG-23" value="Фары, прочее освещение" style="rounded=0;whiteSpace=wrap;html=1;" vertex="1" parent="1">
          <mxGeometry x="1160.5" y="840" width="84" height="50" as="geometry" />
        </mxCell>
        <mxCell id="C7OkJGBz_WWJaQzHo4HG-24" value="Топливный бак" style="rounded=0;whiteSpace=wrap;html=1;" vertex="1" parent="1">
          <mxGeometry x="1230" y="760" width="70" height="50" as="geometry" />
        </mxCell>
        <mxCell id="C7OkJGBz_WWJaQzHo4HG-25" value="Трубы" style="rounded=0;whiteSpace=wrap;html=1;" vertex="1" parent="1">
          <mxGeometry x="1340" y="755" width="110" height="60" as="geometry" />
        </mxCell>
        <mxCell id="C7OkJGBz_WWJaQzHo4HG-26" value="" style="endArrow=classic;html=1;rounded=0;exitX=0.5;exitY=1;exitDx=0;exitDy=0;entryX=0.5;entryY=0;entryDx=0;entryDy=0;" edge="1" parent="1" source="C7OkJGBz_WWJaQzHo4HG-14" target="C7OkJGBz_WWJaQzHo4HG-16">
          <mxGeometry width="50" height="50" relative="1" as="geometry">
            <mxPoint x="1120" y="790" as="sourcePoint" />
            <mxPoint x="1170" y="740" as="targetPoint" />
          </mxGeometry>
        </mxCell>
        <mxCell id="C7OkJGBz_WWJaQzHo4HG-27" value="" style="endArrow=classic;html=1;rounded=0;entryX=0.5;entryY=0;entryDx=0;entryDy=0;exitX=0.75;exitY=1;exitDx=0;exitDy=0;" edge="1" parent="1" source="C7OkJGBz_WWJaQzHo4HG-14" target="C7OkJGBz_WWJaQzHo4HG-17">
          <mxGeometry width="50" height="50" relative="1" as="geometry">
            <mxPoint x="1170" y="620" as="sourcePoint" />
            <mxPoint x="1170" y="740" as="targetPoint" />
          </mxGeometry>
        </mxCell>
        <mxCell id="C7OkJGBz_WWJaQzHo4HG-28" value="" style="endArrow=classic;html=1;rounded=0;entryX=0.5;entryY=0;entryDx=0;entryDy=0;exitX=0.25;exitY=1;exitDx=0;exitDy=0;" edge="1" parent="1" source="C7OkJGBz_WWJaQzHo4HG-14" target="C7OkJGBz_WWJaQzHo4HG-15">
          <mxGeometry width="50" height="50" relative="1" as="geometry">
            <mxPoint x="1130" y="800" as="sourcePoint" />
            <mxPoint x="1180" y="750" as="targetPoint" />
          </mxGeometry>
        </mxCell>
        <mxCell id="C7OkJGBz_WWJaQzHo4HG-29" value="" style="endArrow=classic;html=1;rounded=0;entryX=0.5;entryY=0;entryDx=0;entryDy=0;exitX=0.5;exitY=1;exitDx=0;exitDy=0;" edge="1" parent="1" source="C7OkJGBz_WWJaQzHo4HG-17" target="C7OkJGBz_WWJaQzHo4HG-24">
          <mxGeometry width="50" height="50" relative="1" as="geometry">
            <mxPoint x="1140" y="810" as="sourcePoint" />
            <mxPoint x="1190" y="760" as="targetPoint" />
          </mxGeometry>
        </mxCell>
        <mxCell id="C7OkJGBz_WWJaQzHo4HG-30" value="" style="endArrow=classic;html=1;rounded=0;entryX=0.5;entryY=0;entryDx=0;entryDy=0;exitX=0.5;exitY=1;exitDx=0;exitDy=0;" edge="1" parent="1" source="C7OkJGBz_WWJaQzHo4HG-17" target="C7OkJGBz_WWJaQzHo4HG-25">
          <mxGeometry width="50" height="50" relative="1" as="geometry">
            <mxPoint x="1150" y="820" as="sourcePoint" />
            <mxPoint x="1200" y="770" as="targetPoint" />
          </mxGeometry>
        </mxCell>
        <mxCell id="C7OkJGBz_WWJaQzHo4HG-31" value="" style="endArrow=classic;html=1;rounded=0;entryX=0.5;entryY=0;entryDx=0;entryDy=0;exitX=0.75;exitY=1;exitDx=0;exitDy=0;" edge="1" parent="1" source="C7OkJGBz_WWJaQzHo4HG-16" target="C7OkJGBz_WWJaQzHo4HG-23">
          <mxGeometry width="50" height="50" relative="1" as="geometry">
            <mxPoint x="1160" y="830" as="sourcePoint" />
            <mxPoint x="1210" y="780" as="targetPoint" />
          </mxGeometry>
        </mxCell>
        <mxCell id="C7OkJGBz_WWJaQzHo4HG-32" value="" style="endArrow=classic;html=1;rounded=0;entryX=0.5;entryY=0;entryDx=0;entryDy=0;exitX=0.25;exitY=1;exitDx=0;exitDy=0;" edge="1" parent="1" source="C7OkJGBz_WWJaQzHo4HG-16" target="C7OkJGBz_WWJaQzHo4HG-22">
          <mxGeometry width="50" height="50" relative="1" as="geometry">
            <mxPoint x="1170" y="840" as="sourcePoint" />
            <mxPoint x="1220" y="790" as="targetPoint" />
          </mxGeometry>
        </mxCell>
        <mxCell id="C7OkJGBz_WWJaQzHo4HG-33" value="" style="endArrow=classic;html=1;rounded=0;entryX=0.5;entryY=0;entryDx=0;entryDy=0;exitX=0.5;exitY=1;exitDx=0;exitDy=0;" edge="1" parent="1" source="C7OkJGBz_WWJaQzHo4HG-16" target="C7OkJGBz_WWJaQzHo4HG-21">
          <mxGeometry width="50" height="50" relative="1" as="geometry">
            <mxPoint x="1180" y="850" as="sourcePoint" />
            <mxPoint x="1230" y="800" as="targetPoint" />
          </mxGeometry>
        </mxCell>
        <mxCell id="C7OkJGBz_WWJaQzHo4HG-34" value="" style="endArrow=classic;html=1;rounded=0;entryX=0.5;entryY=0;entryDx=0;entryDy=0;exitX=0.5;exitY=1;exitDx=0;exitDy=0;" edge="1" parent="1" source="C7OkJGBz_WWJaQzHo4HG-15" target="C7OkJGBz_WWJaQzHo4HG-19">
          <mxGeometry width="50" height="50" relative="1" as="geometry">
            <mxPoint x="1190" y="860" as="sourcePoint" />
            <mxPoint x="1240" y="810" as="targetPoint" />
          </mxGeometry>
        </mxCell>
        <mxCell id="C7OkJGBz_WWJaQzHo4HG-35" value="" style="endArrow=classic;html=1;rounded=0;entryX=0.5;entryY=0;entryDx=0;entryDy=0;exitX=0.674;exitY=0.997;exitDx=0;exitDy=0;exitPerimeter=0;" edge="1" parent="1" source="C7OkJGBz_WWJaQzHo4HG-15" target="C7OkJGBz_WWJaQzHo4HG-20">
          <mxGeometry width="50" height="50" relative="1" as="geometry">
            <mxPoint x="1200" y="870" as="sourcePoint" />
            <mxPoint x="1250" y="820" as="targetPoint" />
          </mxGeometry>
        </mxCell>
        <mxCell id="C7OkJGBz_WWJaQzHo4HG-36" value="" style="endArrow=classic;html=1;rounded=0;entryX=0.5;entryY=0;entryDx=0;entryDy=0;exitX=0.322;exitY=0.998;exitDx=0;exitDy=0;exitPerimeter=0;" edge="1" parent="1" source="C7OkJGBz_WWJaQzHo4HG-15" target="C7OkJGBz_WWJaQzHo4HG-18">
          <mxGeometry width="50" height="50" relative="1" as="geometry">
            <mxPoint x="1210" y="880" as="sourcePoint" />
            <mxPoint x="1260" y="830" as="targetPoint" />
          </mxGeometry>
        </mxCell>
        <mxCell id="C7OkJGBz_WWJaQzHo4HG-37" value="" style="endArrow=classic;html=1;rounded=0;exitX=0;exitY=0.5;exitDx=0;exitDy=0;entryX=1;entryY=0.5;entryDx=0;entryDy=0;fillColor=#0050ef;strokeColor=#001DBC;" edge="1" parent="1" source="C7OkJGBz_WWJaQzHo4HG-16" target="C7OkJGBz_WWJaQzHo4HG-15">
          <mxGeometry width="50" height="50" relative="1" as="geometry">
            <mxPoint x="850" y="610" as="sourcePoint" />
            <mxPoint x="900" y="560" as="targetPoint" />
          </mxGeometry>
        </mxCell>
        <mxCell id="C7OkJGBz_WWJaQzHo4HG-38" value="" style="endArrow=classic;html=1;rounded=0;exitX=1;exitY=0.5;exitDx=0;exitDy=0;entryX=0;entryY=0.5;entryDx=0;entryDy=0;fillColor=#0050ef;strokeColor=#001DBC;" edge="1" parent="1" source="C7OkJGBz_WWJaQzHo4HG-16" target="C7OkJGBz_WWJaQzHo4HG-17">
          <mxGeometry width="50" height="50" relative="1" as="geometry">
            <mxPoint x="1380" y="620" as="sourcePoint" />
            <mxPoint x="1430" y="570" as="targetPoint" />
          </mxGeometry>
        </mxCell>
        <mxCell id="C7OkJGBz_WWJaQzHo4HG-39" value="" style="endArrow=classic;html=1;rounded=0;fillColor=#0050ef;strokeColor=#001DBC;" edge="1" parent="1">
          <mxGeometry width="50" height="50" relative="1" as="geometry">
            <mxPoint x="1250.75" y="580" as="sourcePoint" />
            <mxPoint x="1300.75" y="580" as="targetPoint" />
          </mxGeometry>
        </mxCell>
        <mxCell id="C7OkJGBz_WWJaQzHo4HG-40" value="Управляет" style="text;html=1;align=center;verticalAlign=middle;resizable=0;points=[];autosize=1;strokeColor=none;fillColor=none;" vertex="1" parent="1">
          <mxGeometry x="1241" y="550" width="80" height="30" as="geometry" />
        </mxCell>
        <mxCell id="C7OkJGBz_WWJaQzHo4HG-41" value="" style="endArrow=classic;html=1;rounded=0;exitX=0.5;exitY=1;exitDx=0;exitDy=0;entryX=0;entryY=0.5;entryDx=0;entryDy=0;fillColor=#a20025;strokeColor=#6F0000;" edge="1" parent="1" source="C7OkJGBz_WWJaQzHo4HG-18" target="C7OkJGBz_WWJaQzHo4HG-19">
          <mxGeometry width="50" height="50" relative="1" as="geometry">
            <mxPoint x="740" y="900" as="sourcePoint" />
            <mxPoint x="790" y="850" as="targetPoint" />
          </mxGeometry>
        </mxCell>
        <mxCell id="C7OkJGBz_WWJaQzHo4HG-42" value="" style="endArrow=classic;html=1;rounded=0;exitX=1;exitY=0.5;exitDx=0;exitDy=0;entryX=0;entryY=0.5;entryDx=0;entryDy=0;fillColor=#a20025;strokeColor=#6F0000;" edge="1" parent="1" source="C7OkJGBz_WWJaQzHo4HG-19" target="C7OkJGBz_WWJaQzHo4HG-20">
          <mxGeometry width="50" height="50" relative="1" as="geometry">
            <mxPoint x="870" y="790" as="sourcePoint" />
            <mxPoint x="920" y="740" as="targetPoint" />
          </mxGeometry>
        </mxCell>
        <mxCell id="C7OkJGBz_WWJaQzHo4HG-43" value="" style="endArrow=classic;html=1;rounded=0;fillColor=#a20025;strokeColor=#6F0000;" edge="1" parent="1">
          <mxGeometry width="50" height="50" relative="1" as="geometry">
            <mxPoint x="770" y="930" as="sourcePoint" />
            <mxPoint x="840" y="930" as="targetPoint" />
          </mxGeometry>
        </mxCell>
        <mxCell id="C7OkJGBz_WWJaQzHo4HG-44" value="Передаёт движение" style="text;html=1;align=center;verticalAlign=middle;resizable=0;points=[];autosize=1;strokeColor=none;fillColor=none;" vertex="1" parent="1">
          <mxGeometry x="740" y="898" width="140" height="30" as="geometry" />
        </mxCell>
        <mxCell id="C7OkJGBz_WWJaQzHo4HG-45" value="" style="endArrow=classic;html=1;rounded=0;entryX=0;entryY=0.5;entryDx=0;entryDy=0;exitX=0.75;exitY=0;exitDx=0;exitDy=0;fillColor=#008a00;strokeColor=#005700;curved=0;" edge="1" parent="1" source="C7OkJGBz_WWJaQzHo4HG-22" target="C7OkJGBz_WWJaQzHo4HG-21">
          <mxGeometry width="50" height="50" relative="1" as="geometry">
            <mxPoint x="1070" y="950" as="sourcePoint" />
            <mxPoint x="1120" y="900" as="targetPoint" />
            <Array as="points">
              <mxPoint x="1090" y="800" />
            </Array>
          </mxGeometry>
        </mxCell>
        <mxCell id="C7OkJGBz_WWJaQzHo4HG-46" value="" style="endArrow=classic;html=1;rounded=0;entryX=0;entryY=0.5;entryDx=0;entryDy=0;exitX=1;exitY=0.5;exitDx=0;exitDy=0;fillColor=#008a00;strokeColor=#005700;" edge="1" parent="1" source="C7OkJGBz_WWJaQzHo4HG-22" target="C7OkJGBz_WWJaQzHo4HG-23">
          <mxGeometry width="50" height="50" relative="1" as="geometry">
            <mxPoint x="1090" y="940" as="sourcePoint" />
            <mxPoint x="1140" y="890" as="targetPoint" />
          </mxGeometry>
        </mxCell>
        <mxCell id="C7OkJGBz_WWJaQzHo4HG-47" value="" style="endArrow=classic;html=1;rounded=0;fillColor=#008a00;strokeColor=#005700;" edge="1" parent="1">
          <mxGeometry width="50" height="50" relative="1" as="geometry">
            <mxPoint x="1020" y="930" as="sourcePoint" />
            <mxPoint x="1080" y="930" as="targetPoint" />
          </mxGeometry>
        </mxCell>
        <mxCell id="C7OkJGBz_WWJaQzHo4HG-48" value="Питает" style="text;html=1;align=center;verticalAlign=middle;resizable=0;points=[];autosize=1;strokeColor=none;fillColor=none;" vertex="1" parent="1">
          <mxGeometry x="1020" y="890" width="60" height="30" as="geometry" />
        </mxCell>
        <mxCell id="C7OkJGBz_WWJaQzHo4HG-49" value="" style="endArrow=classic;html=1;rounded=0;entryX=0;entryY=0.5;entryDx=0;entryDy=0;exitX=1;exitY=0.5;exitDx=0;exitDy=0;strokeColor=#FF6666;fillColor=#e51400;" edge="1" parent="1" source="C7OkJGBz_WWJaQzHo4HG-24" target="C7OkJGBz_WWJaQzHo4HG-25">
          <mxGeometry width="50" height="50" relative="1" as="geometry">
            <mxPoint x="1330" y="900" as="sourcePoint" />
            <mxPoint x="1380" y="850" as="targetPoint" />
          </mxGeometry>
        </mxCell>
        <mxCell id="C7OkJGBz_WWJaQzHo4HG-50" value="" style="endArrow=classic;html=1;rounded=0;entryX=0;entryY=0.5;entryDx=0;entryDy=0;exitX=1;exitY=0.5;exitDx=0;exitDy=0;strokeColor=#FF6666;fillColor=#e51400;" edge="1" parent="1">
          <mxGeometry width="50" height="50" relative="1" as="geometry">
            <mxPoint x="1300" y="904.5" as="sourcePoint" />
            <mxPoint x="1340" y="904.5" as="targetPoint" />
          </mxGeometry>
        </mxCell>
        <mxCell id="C7OkJGBz_WWJaQzHo4HG-51" value="Передаёт топливо" style="text;html=1;align=center;verticalAlign=middle;resizable=0;points=[];autosize=1;strokeColor=none;fillColor=none;" vertex="1" parent="1">
          <mxGeometry x="1255" y="868" width="130" height="30" as="geometry" />
        </mxCell>
        <mxCell id="C7OkJGBz_WWJaQzHo4HG-53" value="Птицеферма" style="rounded=0;whiteSpace=wrap;html=1;" vertex="1" parent="1">
          <mxGeometry x="1200.25" y="1415" width="120" height="60" as="geometry" />
        </mxCell>
        <mxCell id="C7OkJGBz_WWJaQzHo4HG-54" value="&lt;span style=&quot;--tw-border-spacing-x: 0; --tw-border-spacing-y: 0; --tw-translate-x: 0; --tw-translate-y: 0; --tw-rotate: 0; --tw-skew-x: 0; --tw-skew-y: 0; --tw-scale-x: 1; --tw-scale-y: 1; --tw-pan-x: ; --tw-pan-y: ; --tw-pinch-zoom: ; --tw-scroll-snap-strictness: proximity; --tw-gradient-from-position: ; --tw-gradient-via-position: ; --tw-gradient-to-position: ; --tw-ordinal: ; --tw-slashed-zero: ; --tw-numeric-figure: ; --tw-numeric-spacing: ; --tw-numeric-fraction: ; --tw-ring-inset: ; --tw-ring-offset-width: 0px; --tw-ring-offset-color: light-dark(#fff, #000000); --tw-ring-color: light-dark(rgba(59,130,246,.5), #4c89ec); --tw-ring-offset-shadow: 0 0 #0000; --tw-ring-shadow: 0 0 #0000; --tw-shadow: 0 0 #0000; --tw-shadow-colored: 0 0 #0000; --tw-blur: ; --tw-brightness: ; --tw-contrast: ; --tw-grayscale: ; --tw-hue-rotate: ; --tw-invert: ; --tw-saturate: ; --tw-sepia: ; --tw-drop-shadow: ; --tw-backdrop-blur: ; --tw-backdrop-brightness: ; --tw-backdrop-contrast: ; --tw-backdrop-grayscale: ; --tw-backdrop-hue-rotate: ; --tw-backdrop-invert: ; --tw-backdrop-opacity: ; --tw-backdrop-saturate: ; --tw-backdrop-sepia: ; --tw-contain-size: ; --tw-contain-layout: ; --tw-contain-paint: ; --tw-contain-style: ; box-sizing: border-box; border-width: 0px; border-style: solid; border-color: hsl(var(--border)); border-image: initial; color: var(--tw-prose-bold); font-family: __Inter_d65c78, __Inter_Fallback_d65c78, ui-sans-serif, system-ui, sans-serif, &amp;quot;Apple Color Emoji&amp;quot;, &amp;quot;Segoe UI Emoji&amp;quot;, &amp;quot;Segoe UI Symbol&amp;quot;, &amp;quot;Noto Color Emoji&amp;quot;; font-size: 16px; text-align: left; background-color: rgba(244, 244, 245, 0.5);&quot;&gt;Административная подсистема&lt;/span&gt;" style="rounded=0;whiteSpace=wrap;html=1;" vertex="1" parent="1">
          <mxGeometry x="1010.25" y="1525" width="139.5" height="60" as="geometry" />
        </mxCell>
        <mxCell id="C7OkJGBz_WWJaQzHo4HG-55" value="&lt;span style=&quot;--tw-border-spacing-x: 0; --tw-border-spacing-y: 0; --tw-translate-x: 0; --tw-translate-y: 0; --tw-rotate: 0; --tw-skew-x: 0; --tw-skew-y: 0; --tw-scale-x: 1; --tw-scale-y: 1; --tw-pan-x: ; --tw-pan-y: ; --tw-pinch-zoom: ; --tw-scroll-snap-strictness: proximity; --tw-gradient-from-position: ; --tw-gradient-via-position: ; --tw-gradient-to-position: ; --tw-ordinal: ; --tw-slashed-zero: ; --tw-numeric-figure: ; --tw-numeric-spacing: ; --tw-numeric-fraction: ; --tw-ring-inset: ; --tw-ring-offset-width: 0px; --tw-ring-offset-color: light-dark(#fff, #000000); --tw-ring-color: light-dark(rgba(59,130,246,.5), #4c89ec); --tw-ring-offset-shadow: 0 0 #0000; --tw-ring-shadow: 0 0 #0000; --tw-shadow: 0 0 #0000; --tw-shadow-colored: 0 0 #0000; --tw-blur: ; --tw-brightness: ; --tw-contrast: ; --tw-grayscale: ; --tw-hue-rotate: ; --tw-invert: ; --tw-saturate: ; --tw-sepia: ; --tw-drop-shadow: ; --tw-backdrop-blur: ; --tw-backdrop-brightness: ; --tw-backdrop-contrast: ; --tw-backdrop-grayscale: ; --tw-backdrop-hue-rotate: ; --tw-backdrop-invert: ; --tw-backdrop-opacity: ; --tw-backdrop-saturate: ; --tw-backdrop-sepia: ; --tw-contain-size: ; --tw-contain-layout: ; --tw-contain-paint: ; --tw-contain-style: ; box-sizing: border-box; border-width: 0px; border-style: solid; border-color: hsl(var(--border)); border-image: initial; color: var(--tw-prose-bold); font-family: __Inter_d65c78, __Inter_Fallback_d65c78, ui-sans-serif, system-ui, sans-serif, &amp;quot;Apple Color Emoji&amp;quot;, &amp;quot;Segoe UI Emoji&amp;quot;, &amp;quot;Segoe UI Symbol&amp;quot;, &amp;quot;Noto Color Emoji&amp;quot;; font-size: 16px; text-align: left; background-color: rgba(244, 244, 245, 0.5);&quot;&gt;Логистическая подсистема&lt;/span&gt;" style="rounded=0;whiteSpace=wrap;html=1;" vertex="1" parent="1">
          <mxGeometry x="1202" y="1622.5" width="120" height="60" as="geometry" />
        </mxCell>
        <mxCell id="C7OkJGBz_WWJaQzHo4HG-56" value="Финансовый отдел" style="rounded=0;whiteSpace=wrap;html=1;" vertex="1" parent="1">
          <mxGeometry x="984" y="1655" width="70" height="50" as="geometry" />
        </mxCell>
        <mxCell id="C7OkJGBz_WWJaQzHo4HG-57" value="Управление персоналом" style="rounded=0;whiteSpace=wrap;html=1;" vertex="1" parent="1">
          <mxGeometry x="880" y="1705" width="70" height="50" as="geometry" />
        </mxCell>
        <mxCell id="C7OkJGBz_WWJaQzHo4HG-58" value="Маркетинг и реклама" style="rounded=0;whiteSpace=wrap;html=1;" vertex="1" parent="1">
          <mxGeometry x="1080" y="1729" width="70" height="50" as="geometry" />
        </mxCell>
        <mxCell id="C7OkJGBz_WWJaQzHo4HG-59" value="Отдел закупок" style="rounded=0;whiteSpace=wrap;html=1;" vertex="1" parent="1">
          <mxGeometry x="1185" y="1755" width="70" height="50" as="geometry" />
        </mxCell>
        <mxCell id="C7OkJGBz_WWJaQzHo4HG-60" value="&lt;div&gt;Отдел доставок&lt;/div&gt;" style="rounded=0;whiteSpace=wrap;html=1;" vertex="1" parent="1">
          <mxGeometry x="1310" y="1770" width="110" height="60" as="geometry" />
        </mxCell>
        <mxCell id="C7OkJGBz_WWJaQzHo4HG-61" value="" style="endArrow=classic;html=1;rounded=0;exitX=0.5;exitY=1;exitDx=0;exitDy=0;entryX=0.5;entryY=0;entryDx=0;entryDy=0;" edge="1" parent="1" source="C7OkJGBz_WWJaQzHo4HG-53" target="C7OkJGBz_WWJaQzHo4HG-54">
          <mxGeometry width="50" height="50" relative="1" as="geometry">
            <mxPoint x="1239.5" y="1690" as="sourcePoint" />
            <mxPoint x="1289.5" y="1640" as="targetPoint" />
          </mxGeometry>
        </mxCell>
        <mxCell id="C7OkJGBz_WWJaQzHo4HG-62" value="" style="endArrow=classic;html=1;rounded=0;entryX=0.5;entryY=0;entryDx=0;entryDy=0;exitX=0.5;exitY=1;exitDx=0;exitDy=0;" edge="1" parent="1" source="C7OkJGBz_WWJaQzHo4HG-53" target="C7OkJGBz_WWJaQzHo4HG-55">
          <mxGeometry width="50" height="50" relative="1" as="geometry">
            <mxPoint x="1289.5" y="1520" as="sourcePoint" />
            <mxPoint x="1289.5" y="1640" as="targetPoint" />
          </mxGeometry>
        </mxCell>
        <mxCell id="C7OkJGBz_WWJaQzHo4HG-63" value="" style="endArrow=classic;html=1;rounded=0;entryX=0.5;entryY=0;entryDx=0;entryDy=0;exitX=0.5;exitY=1;exitDx=0;exitDy=0;" edge="1" parent="1" source="C7OkJGBz_WWJaQzHo4HG-55" target="C7OkJGBz_WWJaQzHo4HG-59">
          <mxGeometry width="50" height="50" relative="1" as="geometry">
            <mxPoint x="1076.5" y="1828.5" as="sourcePoint" />
            <mxPoint x="1126.5" y="1778.5" as="targetPoint" />
          </mxGeometry>
        </mxCell>
        <mxCell id="C7OkJGBz_WWJaQzHo4HG-64" value="" style="endArrow=classic;html=1;rounded=0;entryX=0.5;entryY=0;entryDx=0;entryDy=0;exitX=0.5;exitY=1;exitDx=0;exitDy=0;" edge="1" parent="1" source="C7OkJGBz_WWJaQzHo4HG-55" target="C7OkJGBz_WWJaQzHo4HG-60">
          <mxGeometry width="50" height="50" relative="1" as="geometry">
            <mxPoint x="1086.5" y="1838.5" as="sourcePoint" />
            <mxPoint x="1136.5" y="1788.5" as="targetPoint" />
          </mxGeometry>
        </mxCell>
        <mxCell id="C7OkJGBz_WWJaQzHo4HG-65" value="" style="endArrow=classic;html=1;rounded=0;entryX=0.5;entryY=0;entryDx=0;entryDy=0;exitX=0.75;exitY=1;exitDx=0;exitDy=0;" edge="1" parent="1" source="C7OkJGBz_WWJaQzHo4HG-54" target="C7OkJGBz_WWJaQzHo4HG-58">
          <mxGeometry width="50" height="50" relative="1" as="geometry">
            <mxPoint x="1039.5" y="1741" as="sourcePoint" />
            <mxPoint x="1089.5" y="1691" as="targetPoint" />
          </mxGeometry>
        </mxCell>
        <mxCell id="C7OkJGBz_WWJaQzHo4HG-66" value="" style="endArrow=classic;html=1;rounded=0;entryX=0.5;entryY=0;entryDx=0;entryDy=0;exitX=0.25;exitY=1;exitDx=0;exitDy=0;" edge="1" parent="1" source="C7OkJGBz_WWJaQzHo4HG-54" target="C7OkJGBz_WWJaQzHo4HG-57">
          <mxGeometry width="50" height="50" relative="1" as="geometry">
            <mxPoint x="1049.5" y="1751" as="sourcePoint" />
            <mxPoint x="1099.5" y="1701" as="targetPoint" />
          </mxGeometry>
        </mxCell>
        <mxCell id="C7OkJGBz_WWJaQzHo4HG-67" value="" style="endArrow=classic;html=1;rounded=0;entryX=0.5;entryY=0;entryDx=0;entryDy=0;exitX=0.5;exitY=1;exitDx=0;exitDy=0;" edge="1" parent="1" source="C7OkJGBz_WWJaQzHo4HG-54" target="C7OkJGBz_WWJaQzHo4HG-56">
          <mxGeometry width="50" height="50" relative="1" as="geometry">
            <mxPoint x="1059.5" y="1761" as="sourcePoint" />
            <mxPoint x="1109.5" y="1711" as="targetPoint" />
          </mxGeometry>
        </mxCell>
        <mxCell id="C7OkJGBz_WWJaQzHo4HG-68" style="edgeStyle=orthogonalEdgeStyle;rounded=0;orthogonalLoop=1;jettySize=auto;html=1;entryX=0.5;entryY=0;entryDx=0;entryDy=0;" edge="1" parent="1" source="C7OkJGBz_WWJaQzHo4HG-70" target="C7OkJGBz_WWJaQzHo4HG-71">
          <mxGeometry relative="1" as="geometry" />
        </mxCell>
        <mxCell id="C7OkJGBz_WWJaQzHo4HG-69" style="edgeStyle=orthogonalEdgeStyle;rounded=0;orthogonalLoop=1;jettySize=auto;html=1;" edge="1" parent="1" source="C7OkJGBz_WWJaQzHo4HG-70" target="C7OkJGBz_WWJaQzHo4HG-72">
          <mxGeometry relative="1" as="geometry">
            <Array as="points">
              <mxPoint x="1420" y="1605" />
              <mxPoint x="1670" y="1605" />
            </Array>
          </mxGeometry>
        </mxCell>
        <mxCell id="C7OkJGBz_WWJaQzHo4HG-70" value="&lt;span style=&quot;--tw-border-spacing-x: 0; --tw-border-spacing-y: 0; --tw-translate-x: 0; --tw-translate-y: 0; --tw-rotate: 0; --tw-skew-x: 0; --tw-skew-y: 0; --tw-scale-x: 1; --tw-scale-y: 1; --tw-pan-x: ; --tw-pan-y: ; --tw-pinch-zoom: ; --tw-scroll-snap-strictness: proximity; --tw-gradient-from-position: ; --tw-gradient-via-position: ; --tw-gradient-to-position: ; --tw-ordinal: ; --tw-slashed-zero: ; --tw-numeric-figure: ; --tw-numeric-spacing: ; --tw-numeric-fraction: ; --tw-ring-inset: ; --tw-ring-offset-width: 0px; --tw-ring-offset-color: light-dark(#fff, #000000); --tw-ring-color: light-dark(rgba(59,130,246,.5), #4c89ec); --tw-ring-offset-shadow: 0 0 #0000; --tw-ring-shadow: 0 0 #0000; --tw-shadow: 0 0 #0000; --tw-shadow-colored: 0 0 #0000; --tw-blur: ; --tw-brightness: ; --tw-contrast: ; --tw-grayscale: ; --tw-hue-rotate: ; --tw-invert: ; --tw-saturate: ; --tw-sepia: ; --tw-drop-shadow: ; --tw-backdrop-blur: ; --tw-backdrop-brightness: ; --tw-backdrop-contrast: ; --tw-backdrop-grayscale: ; --tw-backdrop-hue-rotate: ; --tw-backdrop-invert: ; --tw-backdrop-opacity: ; --tw-backdrop-saturate: ; --tw-backdrop-sepia: ; --tw-contain-size: ; --tw-contain-layout: ; --tw-contain-paint: ; --tw-contain-style: ; box-sizing: border-box; border-width: 0px; border-style: solid; border-color: hsl(var(--border)); border-image: initial; color: var(--tw-prose-bold); font-family: __Inter_d65c78, __Inter_Fallback_d65c78, ui-sans-serif, system-ui, sans-serif, &amp;quot;Apple Color Emoji&amp;quot;, &amp;quot;Segoe UI Emoji&amp;quot;, &amp;quot;Segoe UI Symbol&amp;quot;, &amp;quot;Noto Color Emoji&amp;quot;; font-size: 16px; text-align: left; background-color: rgba(244, 244, 245, 0.5);&quot;&gt;Складская подсистема&lt;/span&gt;" style="rounded=0;whiteSpace=wrap;html=1;" vertex="1" parent="1">
          <mxGeometry x="1359.5" y="1525" width="120" height="60" as="geometry" />
        </mxCell>
        <mxCell id="C7OkJGBz_WWJaQzHo4HG-71" value="&lt;span style=&quot;--tw-border-spacing-x: 0; --tw-border-spacing-y: 0; --tw-translate-x: 0; --tw-translate-y: 0; --tw-rotate: 0; --tw-skew-x: 0; --tw-skew-y: 0; --tw-scale-x: 1; --tw-scale-y: 1; --tw-pan-x: ; --tw-pan-y: ; --tw-pinch-zoom: ; --tw-scroll-snap-strictness: proximity; --tw-gradient-from-position: ; --tw-gradient-via-position: ; --tw-gradient-to-position: ; --tw-ordinal: ; --tw-slashed-zero: ; --tw-numeric-figure: ; --tw-numeric-spacing: ; --tw-numeric-fraction: ; --tw-ring-inset: ; --tw-ring-offset-width: 0px; --tw-ring-offset-color: light-dark(#fff, #000000); --tw-ring-color: light-dark(rgba(59,130,246,.5), #4c89ec); --tw-ring-offset-shadow: 0 0 #0000; --tw-ring-shadow: 0 0 #0000; --tw-shadow: 0 0 #0000; --tw-shadow-colored: 0 0 #0000; --tw-blur: ; --tw-brightness: ; --tw-contrast: ; --tw-grayscale: ; --tw-hue-rotate: ; --tw-invert: ; --tw-saturate: ; --tw-sepia: ; --tw-drop-shadow: ; --tw-backdrop-blur: ; --tw-backdrop-brightness: ; --tw-backdrop-contrast: ; --tw-backdrop-grayscale: ; --tw-backdrop-hue-rotate: ; --tw-backdrop-invert: ; --tw-backdrop-opacity: ; --tw-backdrop-saturate: ; --tw-backdrop-sepia: ; --tw-contain-size: ; --tw-contain-layout: ; --tw-contain-paint: ; --tw-contain-style: ; box-sizing: border-box; border-width: 0px; border-style: solid; border-color: hsl(var(--border)); border-image: initial; color: var(--tw-prose-bold); font-family: __Inter_d65c78, __Inter_Fallback_d65c78, ui-sans-serif, system-ui, sans-serif, &amp;quot;Apple Color Emoji&amp;quot;, &amp;quot;Segoe UI Emoji&amp;quot;, &amp;quot;Segoe UI Symbol&amp;quot;, &amp;quot;Noto Color Emoji&amp;quot;; font-size: 16px; text-align: left; background-color: rgba(244, 244, 245, 0.5);&quot;&gt;Зона хранения готовой продукции&lt;/span&gt;" style="rounded=0;whiteSpace=wrap;html=1;" vertex="1" parent="1">
          <mxGeometry x="1430.25" y="1660" width="119.75" height="80" as="geometry" />
        </mxCell>
        <mxCell id="C7OkJGBz_WWJaQzHo4HG-72" value="&lt;div style=&quot;text-align: left;&quot;&gt;&lt;span style=&quot;color: light-dark(rgb(0, 0, 0), rgb(255, 255, 255)); font-size: 16px; background-color: rgba(244, 244, 245, 0.5);&quot;&gt;&lt;font face=&quot;__Inter_d65c78, __Inter_Fallback_d65c78, ui-sans-serif, system-ui, sans-serif, Apple Color Emoji, Segoe UI Emoji, Segoe UI Symbol, Noto Color Emoji&quot;&gt;Система учета запасов&lt;/font&gt;&lt;/span&gt;&lt;/div&gt;" style="rounded=0;whiteSpace=wrap;html=1;" vertex="1" parent="1">
          <mxGeometry x="1630" y="1660" width="80" height="70" as="geometry" />
        </mxCell>
        <mxCell id="C7OkJGBz_WWJaQzHo4HG-73" value="" style="endArrow=classic;html=1;rounded=0;exitX=0.5;exitY=1;exitDx=0;exitDy=0;entryX=0.5;entryY=0;entryDx=0;entryDy=0;" edge="1" parent="1" source="C7OkJGBz_WWJaQzHo4HG-53" target="C7OkJGBz_WWJaQzHo4HG-70">
          <mxGeometry width="50" height="50" relative="1" as="geometry">
            <mxPoint x="1340" y="1625" as="sourcePoint" />
            <mxPoint x="1390" y="1575" as="targetPoint" />
          </mxGeometry>
        </mxCell>
        <mxCell id="C7OkJGBz_WWJaQzHo4HG-76" value="" style="endArrow=classic;html=1;rounded=0;fillColor=#0050ef;strokeColor=#001DBC;" edge="1" parent="1">
          <mxGeometry width="50" height="50" relative="1" as="geometry">
            <mxPoint x="1394.5" y="1450" as="sourcePoint" />
            <mxPoint x="1444.5" y="1450" as="targetPoint" />
          </mxGeometry>
        </mxCell>
        <mxCell id="C7OkJGBz_WWJaQzHo4HG-77" value="Управляет" style="text;html=1;align=center;verticalAlign=middle;resizable=0;points=[];autosize=1;strokeColor=none;fillColor=none;" vertex="1" parent="1">
          <mxGeometry x="1385" y="1410" width="80" height="30" as="geometry" />
        </mxCell>
        <mxCell id="C7OkJGBz_WWJaQzHo4HG-78" value="" style="endArrow=classic;html=1;rounded=0;fillColor=#0050ef;strokeColor=#001DBC;exitX=1;exitY=0.5;exitDx=0;exitDy=0;entryX=0;entryY=0.5;entryDx=0;entryDy=0;" edge="1" parent="1" source="C7OkJGBz_WWJaQzHo4HG-54" target="C7OkJGBz_WWJaQzHo4HG-55">
          <mxGeometry width="50" height="50" relative="1" as="geometry">
            <mxPoint x="1404.5" y="1460" as="sourcePoint" />
            <mxPoint x="1454.5" y="1460" as="targetPoint" />
          </mxGeometry>
        </mxCell>
        <mxCell id="C7OkJGBz_WWJaQzHo4HG-79" value="" style="endArrow=classic;html=1;rounded=0;fillColor=#0050ef;strokeColor=#001DBC;exitX=1;exitY=0.5;exitDx=0;exitDy=0;entryX=0;entryY=0.5;entryDx=0;entryDy=0;" edge="1" parent="1" source="C7OkJGBz_WWJaQzHo4HG-54" target="C7OkJGBz_WWJaQzHo4HG-70">
          <mxGeometry width="50" height="50" relative="1" as="geometry">
            <mxPoint x="1414.5" y="1470" as="sourcePoint" />
            <mxPoint x="1464.5" y="1470" as="targetPoint" />
          </mxGeometry>
        </mxCell>
        <mxCell id="C7OkJGBz_WWJaQzHo4HG-81" value="" style="endArrow=classic;html=1;rounded=0;fillColor=#a20025;strokeColor=#6F0000;" edge="1" parent="1">
          <mxGeometry width="50" height="50" relative="1" as="geometry">
            <mxPoint x="930" y="1882" as="sourcePoint" />
            <mxPoint x="1000" y="1882" as="targetPoint" />
          </mxGeometry>
        </mxCell>
        <mxCell id="C7OkJGBz_WWJaQzHo4HG-82" value="Следит за распределением финансов" style="text;html=1;align=center;verticalAlign=middle;resizable=0;points=[];autosize=1;strokeColor=none;fillColor=none;" vertex="1" parent="1">
          <mxGeometry x="855" y="1840" width="240" height="30" as="geometry" />
        </mxCell>
        <mxCell id="C7OkJGBz_WWJaQzHo4HG-83" value="" style="endArrow=classic;html=1;rounded=0;fillColor=#a20025;strokeColor=#6F0000;entryX=0;entryY=0.5;entryDx=0;entryDy=0;exitX=0.75;exitY=1;exitDx=0;exitDy=0;" edge="1" parent="1" source="C7OkJGBz_WWJaQzHo4HG-56" target="C7OkJGBz_WWJaQzHo4HG-58">
          <mxGeometry width="50" height="50" relative="1" as="geometry">
            <mxPoint x="940" y="1892" as="sourcePoint" />
            <mxPoint x="1010" y="1892" as="targetPoint" />
            <Array as="points" />
          </mxGeometry>
        </mxCell>
        <mxCell id="C7OkJGBz_WWJaQzHo4HG-84" value="" style="endArrow=classic;html=1;rounded=0;fillColor=#a20025;strokeColor=#6F0000;entryX=1;entryY=0.5;entryDx=0;entryDy=0;exitX=0.5;exitY=1;exitDx=0;exitDy=0;" edge="1" parent="1" source="C7OkJGBz_WWJaQzHo4HG-56" target="C7OkJGBz_WWJaQzHo4HG-57">
          <mxGeometry width="50" height="50" relative="1" as="geometry">
            <mxPoint x="1047" y="1715" as="sourcePoint" />
            <mxPoint x="1090" y="1764" as="targetPoint" />
            <Array as="points" />
          </mxGeometry>
        </mxCell>
        <mxCell id="C7OkJGBz_WWJaQzHo4HG-86" value="" style="endArrow=classic;html=1;rounded=0;exitX=0.439;exitY=1.005;exitDx=0;exitDy=0;fillColor=#008a00;strokeColor=#005700;entryX=1;entryY=0.5;entryDx=0;entryDy=0;exitPerimeter=0;" edge="1" parent="1" source="C7OkJGBz_WWJaQzHo4HG-71" target="C7OkJGBz_WWJaQzHo4HG-60">
          <mxGeometry width="50" height="50" relative="1" as="geometry">
            <mxPoint x="1401" y="1788" as="sourcePoint" />
            <mxPoint x="1430" y="1700" as="targetPoint" />
          </mxGeometry>
        </mxCell>
        <mxCell id="C7OkJGBz_WWJaQzHo4HG-87" value="" style="endArrow=classic;html=1;rounded=0;fillColor=#008a00;strokeColor=#005700;" edge="1" parent="1">
          <mxGeometry width="50" height="50" relative="1" as="geometry">
            <mxPoint x="1212" y="1900" as="sourcePoint" />
            <mxPoint x="1322" y="1900" as="targetPoint" />
          </mxGeometry>
        </mxCell>
        <mxCell id="C7OkJGBz_WWJaQzHo4HG-88" value="Передает продукты" style="text;html=1;align=center;verticalAlign=middle;resizable=0;points=[];autosize=1;strokeColor=none;fillColor=none;" vertex="1" parent="1">
          <mxGeometry x="1202" y="1848" width="130" height="30" as="geometry" />
        </mxCell>
        <mxCell id="C7OkJGBz_WWJaQzHo4HG-89" value="" style="endArrow=classic;html=1;rounded=0;entryX=0;entryY=0.5;entryDx=0;entryDy=0;exitX=1;exitY=0.5;exitDx=0;exitDy=0;strokeColor=#FF6666;fillColor=#e51400;" edge="1" parent="1">
          <mxGeometry width="50" height="50" relative="1" as="geometry">
            <mxPoint x="1535" y="1896.5" as="sourcePoint" />
            <mxPoint x="1575" y="1896.5" as="targetPoint" />
          </mxGeometry>
        </mxCell>
        <mxCell id="C7OkJGBz_WWJaQzHo4HG-90" value="Передаёт данные" style="text;html=1;align=center;verticalAlign=middle;resizable=0;points=[];autosize=1;strokeColor=none;fillColor=none;" vertex="1" parent="1">
          <mxGeometry x="1495" y="1818" width="120" height="30" as="geometry" />
        </mxCell>
        <mxCell id="C7OkJGBz_WWJaQzHo4HG-92" value="" style="endArrow=classic;html=1;rounded=0;fillColor=#a20025;strokeColor=#6F0000;entryX=0.5;entryY=0;entryDx=0;entryDy=0;exitX=1;exitY=0.5;exitDx=0;exitDy=0;" edge="1" parent="1" source="C7OkJGBz_WWJaQzHo4HG-56" target="C7OkJGBz_WWJaQzHo4HG-59">
          <mxGeometry width="50" height="50" relative="1" as="geometry">
            <mxPoint x="1047" y="1715" as="sourcePoint" />
            <mxPoint x="1090" y="1764" as="targetPoint" />
            <Array as="points" />
          </mxGeometry>
        </mxCell>
        <mxCell id="C7OkJGBz_WWJaQzHo4HG-94" value="" style="endArrow=classic;html=1;rounded=0;entryX=1;entryY=0.5;entryDx=0;entryDy=0;exitX=0;exitY=0.5;exitDx=0;exitDy=0;strokeColor=#FF6666;fillColor=#e51400;" edge="1" parent="1" source="C7OkJGBz_WWJaQzHo4HG-72" target="C7OkJGBz_WWJaQzHo4HG-71">
          <mxGeometry width="50" height="50" relative="1" as="geometry">
            <mxPoint x="1545" y="1906.5" as="sourcePoint" />
            <mxPoint x="1585" y="1906.5" as="targetPoint" />
          </mxGeometry>
        </mxCell>
      </root>
    </mxGraphModel>
  </diagram>
</mxfile>
